<svg xmlns="http://www.w3.org/2000/svg" width="1200" height="300" viewBox="0 0 1200 300">
  <defs>
    <linearGradient id="bgGrad" x1="0%" y1="0%" x2="100%" y2="0%">
      <stop offset="0%" style="stop-color:#1e40af;stop-opacity:1" />
      <stop offset="50%" style="stop-color:#2563eb;stop-opacity:1" />
      <stop offset="100%" style="stop-color:#3b82f6;stop-opacity:1" />
    </linearGradient>
  </defs>
  
  <!-- Background -->
  <rect width="1200" height="300" fill="url(#bgGrad)"/>
  
  <!-- Abstract geometric pattern in background -->
  <g opacity="0.1" fill="white">
    <circle cx="100" cy="50" r="80"/>
    <circle cx="1100" cy="250" r="60"/>
    <rect x="900" y="20" width="100" height="100" transform="rotate(45 950 70)"/>
  </g>
  
  <!-- Main content group -->
  <g transform="translate(100, 80)">
    <!-- Buildings icon representing "Impulsa" -->
    <g fill="white" opacity="0.9">
      <rect x="0" y="60" width="35" height="80" rx="3"/>
      <rect x="45" y="40" width="35" height="100" rx="3"/>
      <rect x="90" y="20" width="35" height="120" rx="3"/>
      
      <!-- Windows -->
      <rect x="8" y="75" width="8" height="12" fill="#2563eb"/>
      <rect x="22" y="75" width="8" height="12" fill="#2563eb"/>
      <rect x="8" y="95" width="8" height="12" fill="#2563eb"/>
      <rect x="22" y="95" width="8" height="12" fill="#2563eb"/>
      
      <rect x="53" y="55" width="8" height="12" fill="#2563eb"/>
      <rect x="67" y="55" width="8" height="12" fill="#2563eb"/>
      <rect x="53" y="75" width="8" height="12" fill="#2563eb"/>
      <rect x="67" y="75" width="8" height="12" fill="#2563eb"/>
      <rect x="53" y="95" width="8" height="12" fill="#2563eb"/>
      <rect x="67" y="95" width="8" height="12" fill="#2563eb"/>
      
      <rect x="98" y="35" width="8" height="12" fill="#2563eb"/>
      <rect x="112" y="35" width="8" height="12" fill="#2563eb"/>
      <rect x="98" y="55" width="8" height="12" fill="#2563eb"/>
      <rect x="112" y="55" width="8" height="12" fill="#2563eb"/>
      <rect x="98" y="75" width="8" height="12" fill="#2563eb"/>
      <rect x="112" y="75" width="8" height="12" fill="#2563eb"/>
    </g>
    
    <!-- Text -->
    <text x="170" y="70" font-family="Arial, sans-serif" font-size="48" font-weight="bold" fill="white">
      FEMETE IMPULSA
    </text>
    <text x="170" y="110" font-family="Arial, sans-serif" font-size="22" fill="white" opacity="0.9">
      Plataforma de Gestión del Proyecto STARS
    </text>
  </g>
  
  <!-- Decorative line -->
  <line x1="100" y1="240" x2="1100" y2="240" stroke="white" stroke-width="2" opacity="0.3"/>
</svg>
