<svg xmlns="http://www.w3.org/2000/svg" width="512" height="512" viewBox="0 0 512 512">
  <defs>
    <linearGradient id="grad" x1="0%" y1="0%" x2="100%" y2="100%">
      <stop offset="0%" style="stop-color:#2563eb;stop-opacity:1" />
      <stop offset="100%" style="stop-color:#1e40af;stop-opacity:1" />
    </linearGradient>
  </defs>
  <rect width="512" height="512" rx="80" fill="url(#grad)"/>
  <g fill="white">
    <!-- F -->
    <rect x="120" y="150" width="80" height="20" rx="3"/>
    <rect x="120" y="150" width="20" height="212" rx="3"/>
    <rect x="120" y="245" width="60" height="20" rx="3"/>
    
    <!-- I -->
    <rect x="240" y="150" width="20" height="212" rx="3"/>
    
    <!-- Building/Impulsa icon -->
    <rect x="310" y="200" width="30" height="162" rx="2"/>
    <rect x="350" y="180" width="30" height="182" rx="2"/>
    <rect x="390" y="160" width="30" height="202" rx="2"/>
    
    <!-- Windows on buildings -->
    <rect x="315" y="215" width="7" height="10" fill="#2563eb"/>
    <rect x="328" y="215" width="7" height="10" fill="#2563eb"/>
    <rect x="315" y="235" width="7" height="10" fill="#2563eb"/>
    <rect x="328" y="235" width="7" height="10" fill="#2563eb"/>
    <rect x="315" y="255" width="7" height="10" fill="#2563eb"/>
    <rect x="328" y="255" width="7" height="10" fill="#2563eb"/>
    
    <rect x="355" y="195" width="7" height="10" fill="#2563eb"/>
    <rect x="368" y="195" width="7" height="10" fill="#2563eb"/>
    <rect x="355" y="215" width="7" height="10" fill="#2563eb"/>
    <rect x="368" y="215" width="7" height="10" fill="#2563eb"/>
    <rect x="355" y="235" width="7" height="10" fill="#2563eb"/>
    <rect x="368" y="235" width="7" height="10" fill="#2563eb"/>
    
    <rect x="395" y="175" width="7" height="10" fill="#2563eb"/>
    <rect x="408" y="175" width="7" height="10" fill="#2563eb"/>
    <rect x="395" y="195" width="7" height="10" fill="#2563eb"/>
    <rect x="408" y="195" width="7" height="10" fill="#2563eb"/>
    <rect x="395" y="215" width="7" height="10" fill="#2563eb"/>
    <rect x="408" y="215" width="7" height="10" fill="#2563eb"/>
  </g>
</svg>
